<?xml version="1.0" encoding="UTF-8" standalone="no"?>
<!-- Created with Inkscape (http://www.inkscape.org/) -->

<svg
   version="1.1"
   id="svg2"
   width="300.00003"
   height="240.57819"
   viewBox="0 0 300.00003 240.57818"
   sodipodi:docname="Logo_Universitas_Terbuka_dan_Warna_GSM_UT_2010.pdf"
   xmlns:inkscape="http://www.inkscape.org/namespaces/inkscape"
   xmlns:sodipodi="http://sodipodi.sourceforge.net/DTD/sodipodi-0.dtd"
   xmlns="http://www.w3.org/2000/svg"
   xmlns:svg="http://www.w3.org/2000/svg">
  <defs
     id="defs6">
    <clipPath
       clipPathUnits="userSpaceOnUse"
       id="clipPath180">
      <path
         d="M 0,0 H 841.89 V 595.276 H 0 Z"
         id="path178" />
    </clipPath>
  </defs>
  <sodipodi:namedview
     id="namedview4"
     pagecolor="#ffffff"
     bordercolor="#000000"
     borderopacity="0.25"
     inkscape:showpageshadow="2"
     inkscape:pageopacity="0.0"
     inkscape:pagecheckerboard="0"
     inkscape:deskcolor="#d1d1d1"
     showgrid="false" />
  <g
     id="g8"
     inkscape:groupmode="layer"
     inkscape:label="Logo_Universitas_Terbuka_dan_Warna_GSM_UT_2010"
     transform="matrix(1.3333333,0,0,-1.3333333,-152.81652,640.90537)">
    <g
       id="g176"
       clip-path="url(#clipPath180)"
       transform="translate(-32.104351,32.104351)">
      <g
         id="g407"
         transform="matrix(0.80320208,0,0,0.80320208,31.738692,66.073712)">
        <g
           id="g194"
           transform="translate(225.7458,369.8801)">
          <path
             d="M 0,0 C -4.247,6.426 -7.431,13.596 -9.314,21.267 H 52.153 L 50.404,0 Z M 47.902,-30.497 C 30.605,-27.912 15.389,-19.045 4.72,-6.328 h 45.167 z m 64.213,24.169 C 101.167,-19.379 85.435,-28.372 67.57,-30.688 l -1.981,24.36 z m 14.037,27.595 C 124.269,13.596 121.085,6.426 116.839,0 H 65.08 l -1.728,21.267 z m 1.305,25.714 c 0.43,-3.089 0.654,-6.244 0.654,-9.448 0,-3.375 -0.246,-6.693 -0.723,-9.937 H 62.835 L 61.26,46.981 Z M 117.16,74.575 c 4.171,-6.433 7.29,-13.604 9.108,-21.266 H 60.75 L 59.019,74.575 Z M 4.315,80.905 c 12.78,15.522 32.268,25.435 54.104,25.435 21.837,0 41.328,-9.913 54.104,-25.435 H 58.506 l -0.727,8.962 -0.737,-8.962 z M -9.429,53.309 c 1.817,7.662 4.937,14.833 9.107,21.266 H 56.525 L 54.776,53.309 Z m -1.844,-15.776 c 0,3.204 0.221,6.359 0.651,9.448 H 54.26 L 52.67,27.596 h -63.22 c -0.477,3.244 -0.723,6.562 -0.723,9.937"
             style="fill:#214395;fill-opacity:1;fill-rule:nonzero;stroke:none"
             id="path196" />
        </g>
        <g
           id="g198"
           transform="translate(286.25349,309.37669)">
          <path
             d="m 0,0 c 0.463,-0.652 1.084,-2.035 0.336,-3.536 -0.759,-1.511 -2.4,-1.824 -2.4,-1.824 V -16.457 C 14.244,1.102 5.179,10.326 4.847,13.013 2.606,31.106 56.891,33.09 56.891,33.09 l 1.883,-4.079 C 16.929,26.635 11.721,17.961 10.825,16.976 9.003,14.972 9.936,9.728 14.551,13.013 28.234,22.739 61.593,24.309 61.593,24.309 l 2.198,-4.391 C 12.708,13.651 13,8.342 12.668,7.696 10.6,3.688 10.637,-2.031 11.742,-1.406 33.037,10.655 70.061,12.706 70.061,12.706 L 80.098,-4.855 C 9.852,-13.949 -1.749,-28.373 -1.749,-28.373 h -1.858 c 0,0 -11.6,14.424 -81.846,23.518 l 10.037,17.561 c 0,0 37.024,-2.051 58.318,-14.112 1.106,-0.625 1.142,5.094 -0.925,9.102 -0.332,0.646 -0.04,5.955 -51.123,12.222 l 2.198,4.391 c 0,0 33.359,-1.57 47.039,-11.296 4.622,-3.285 5.551,1.959 3.729,3.963 -0.896,0.985 -6.104,9.659 -47.949,12.035 l 1.883,4.079 c 0,0 54.281,-1.984 52.044,-20.077 -0.332,-2.687 -9.397,-11.911 6.91,-29.47 V -5.36 c 0,0 -1.62,0.237 -2.4,1.769 -0.748,1.473 -0.224,2.975 0.34,3.642 0,0 0.907,1.297 2.764,1.297 0,0 1.641,-0.016 2.588,-1.348"
             style="fill:#214395;fill-opacity:1;fill-rule:nonzero;stroke:none"
             id="path200" />
        </g>
        <g
           id="g202"
           transform="translate(210.6963,307.127)">
          <path
             d="m 0,0 c 47.668,-4.704 61.857,-17.167 64.445,-18.667 4.384,-2.534 3.679,0.741 3.447,1.583 -0.549,2.031 -1.644,4.23 -2.208,5.316 C 60.574,-1.778 54.408,0.159 54.408,0.159 37.161,7.369 7.995,10.192 7.995,10.192 2.667,10.817 2.667,9.878 2.667,9.878 L -2.667,0.47 Z"
             style="fill:#fddd04;fill-opacity:1;fill-rule:nonzero;stroke:none"
             id="path204" />
        </g>
        <g
           id="g206"
           transform="translate(359.11929,307.5968)">
          <path
             d="m 0,0 -5.335,9.408 c 0,0 0,0.939 -5.327,0.314 0,0 -29.163,-2.823 -46.41,-10.033 0,0 -6.169,-1.937 -11.28,-11.927 -0.56,-1.086 -1.658,-3.285 -2.204,-5.316 -0.231,-0.842 -0.94,-4.117 3.444,-1.583 2.591,1.5 16.651,14.106 64.315,18.808 z"
             style="fill:#fddd04;fill-opacity:1;fill-rule:nonzero;stroke:none"
             id="path208" />
        </g>
        <g
           id="g210"
           transform="translate(418.28709,258.6877)">
          <path
             d="m 0,0 h -6.047 l 1.93,5.723 c 0.102,0.302 0.21,0.624 0.326,0.965 0.119,0.343 0.227,0.674 0.329,0.992 0.097,0.316 0.188,0.609 0.264,0.877 0.075,0.269 0.137,0.495 0.187,0.677 C -2.96,9.052 -2.898,8.82 -2.826,8.544 -2.75,8.269 -2.66,7.977 -2.559,7.668 -2.461,7.357 -2.356,7.035 -2.248,6.701 -2.14,6.366 -2.031,6.057 -1.934,5.772 Z m 4.164,-6.247 -6.098,17.565 h -2.157 l -6.097,-17.565 h 2.005 L -6.65,-1.78 H 0.6 l 1.507,-4.467 z m -17.262,0 -6.122,10.965 5.143,6.6 H -16.21 L -21.302,4.744 C -21.49,4.509 -21.7,4.232 -21.945,3.916 c -0.242,-0.318 -0.488,-0.645 -0.738,-0.978 -0.249,-0.336 -0.48,-0.65 -0.69,-0.943 -0.209,-0.291 -0.372,-0.52 -0.488,-0.69 v 2.36 7.653 H -25.82 V -6.247 h 1.959 v 5.044 l 3.336,4.317 5.194,-9.361 z M -30.815,0.929 V 11.318 H -32.77 V 0.88 c 0,-1.908 -0.325,-3.321 -0.979,-4.241 -0.651,-0.92 -1.739,-1.379 -3.26,-1.379 -2.996,0 -4.493,1.888 -4.493,5.669 v 10.389 h -1.959 V 0.88 c 0,-2.443 0.532,-4.288 1.594,-5.533 1.063,-1.247 2.646,-1.869 4.757,-1.869 2.121,0 3.704,0.631 4.741,1.894 1.038,1.263 1.554,3.116 1.554,5.557 M -50.31,-3.562 c -0.552,-0.603 -1.489,-0.902 -2.808,-0.902 h -4.467 V 2.31 h 4.366 c 1.153,0 2.067,-0.302 2.732,-0.902 0.673,-0.604 1.005,-1.457 1.005,-2.561 0,-1.005 -0.275,-1.807 -0.828,-2.409 m -0.701,8.465 C -51.48,4.362 -52.257,4.089 -53.345,4.089 h -4.24 v 5.447 h 4.391 c 0.987,0 1.714,-0.246 2.183,-0.735 0.47,-0.494 0.701,-1.139 0.701,-1.938 0,-0.764 -0.231,-1.42 -0.701,-1.96 m 3.188,-4.124 c -0.202,0.509 -0.463,0.938 -0.781,1.279 -0.318,0.345 -0.675,0.62 -1.077,0.83 -0.401,0.209 -0.806,0.365 -1.207,0.466 0.756,0.266 1.366,0.688 1.833,1.263 0.469,0.577 0.704,1.35 0.704,2.317 0,0.752 -0.119,1.404 -0.354,1.955 -0.235,0.549 -0.564,1.005 -0.99,1.363 -0.426,0.359 -0.925,0.628 -1.504,0.802 -0.578,0.175 -1.218,0.264 -1.919,0.264 h -6.426 V -6.247 h 6.3 c 1.858,0 3.274,0.432 4.254,1.294 0.975,0.862 1.467,2.165 1.467,3.909 0,0.702 -0.101,1.31 -0.3,1.823 m -19.011,3.045 c -0.625,-0.54 -1.59,-0.813 -2.894,-0.813 h -4.67 v 6.525 h 4.919 c 1.171,0 2.064,-0.269 2.674,-0.811 0.611,-0.543 0.915,-1.356 0.915,-2.438 0,-1.101 -0.315,-1.921 -0.944,-2.463 m 2.472,4.733 c -0.281,0.618 -0.668,1.133 -1.152,1.543 -0.485,0.41 -1.063,0.715 -1.732,0.916 -0.668,0.201 -1.388,0.302 -2.157,0.302 h -6.95 V -6.247 h 1.955 v 7.478 h 4.167 l 3.763,-7.478 h 2.258 l -3.863,7.628 c 1.254,0.269 2.259,0.82 3.01,1.657 0.752,0.837 1.132,1.941 1.132,3.312 0,0.853 -0.145,1.589 -0.431,2.207 M -80.593,-6.247 v 1.783 h -9.032 v 6.698 h 5.017 v 1.783 h -5.017 v 5.519 h 8.656 v 1.782 H -91.583 V -6.247 Z M -95.624,9.536 v 1.782 H -107.92 V 9.536 h 5.169 V -6.247 h 1.959 V 9.536 Z m -23.059,-9.433 c -0.166,0.501 -0.448,0.96 -0.838,1.379 -0.394,0.417 -0.918,0.802 -1.569,1.155 -0.654,0.35 -1.463,0.703 -2.436,1.053 -0.885,0.316 -1.601,0.609 -2.143,0.878 -0.546,0.268 -0.965,0.541 -1.269,0.815 -0.3,0.277 -0.502,0.562 -0.603,0.853 -0.098,0.293 -0.148,0.622 -0.148,0.991 0,0.352 0.061,0.683 0.188,0.992 0.126,0.309 0.325,0.582 0.6,0.817 0.278,0.233 0.632,0.421 1.069,0.563 0.434,0.143 0.951,0.213 1.554,0.213 0.886,0 1.652,-0.139 2.296,-0.415 0.643,-0.275 1.286,-0.681 1.919,-1.215 l 1.254,1.529 c -0.734,0.586 -1.514,1.047 -2.346,1.381 -0.827,0.334 -1.825,0.502 -2.996,0.502 -0.82,0 -1.569,-0.101 -2.248,-0.301 -0.676,-0.201 -1.254,-0.499 -1.731,-0.891 -0.477,-0.394 -0.85,-0.866 -1.117,-1.417 -0.267,-0.553 -0.401,-1.18 -0.401,-1.881 0,-0.638 0.09,-1.198 0.264,-1.683 0.177,-0.486 0.459,-0.923 0.853,-1.317 0.394,-0.392 0.91,-0.761 1.557,-1.104 0.644,-0.343 1.442,-0.683 2.393,-1.018 0.806,-0.283 1.474,-0.563 2.009,-0.84 0.535,-0.274 0.965,-0.555 1.294,-0.84 0.326,-0.284 0.553,-0.593 0.687,-0.929 0.137,-0.334 0.202,-0.701 0.202,-1.102 0,-0.938 -0.339,-1.674 -1.015,-2.21 -0.676,-0.535 -1.601,-0.801 -2.772,-0.801 -0.904,0 -1.742,0.19 -2.512,0.575 -0.766,0.384 -1.485,0.896 -2.158,1.532 l -1.305,-1.456 c 0.705,-0.703 1.562,-1.283 2.574,-1.743 1.012,-0.46 2.121,-0.69 3.325,-0.69 0.922,0 1.738,0.125 2.457,0.376 0.72,0.251 1.331,0.593 1.833,1.028 0.502,0.436 0.882,0.953 1.142,1.556 0.257,0.602 0.39,1.245 0.39,1.932 0,0.652 -0.086,1.229 -0.253,1.733 M -137.274,0 h -6.048 l 1.932,5.723 c 0.1,0.302 0.21,0.624 0.327,0.965 0.116,0.343 0.224,0.674 0.326,0.992 0.099,0.316 0.188,0.609 0.263,0.877 0.075,0.269 0.138,0.495 0.188,0.677 0.049,-0.182 0.112,-0.414 0.188,-0.69 0.076,-0.275 0.163,-0.567 0.262,-0.876 0.103,-0.311 0.206,-0.633 0.317,-0.967 0.105,-0.335 0.211,-0.644 0.31,-0.929 z m 4.163,-6.247 -6.098,17.565 h -2.157 l -6.098,-17.565 h 2.01 l 1.529,4.467 h 7.251 l 1.507,-4.467 z m -15.505,15.783 v 1.782 h -12.296 V 9.536 h 5.168 V -6.247 h 1.959 V 9.536 Z m -16.461,1.782 h -1.957 V -6.247 h 1.957 z m -6.898,-11.215 c -0.17,0.501 -0.448,0.96 -0.842,1.379 -0.394,0.417 -0.914,0.802 -1.568,1.155 -0.655,0.35 -1.464,0.703 -2.433,1.053 -0.889,0.316 -1.603,0.609 -2.147,0.878 -0.545,0.268 -0.966,0.541 -1.265,0.815 -0.303,0.277 -0.504,0.562 -0.603,0.853 -0.101,0.293 -0.152,0.622 -0.152,0.991 0,0.352 0.065,0.683 0.19,0.992 0.124,0.309 0.325,0.582 0.601,0.817 0.275,0.233 0.631,0.421 1.067,0.563 0.433,0.143 0.952,0.213 1.556,0.213 0.887,0 1.649,-0.139 2.297,-0.415 0.641,-0.275 1.281,-0.681 1.919,-1.215 l 1.254,1.529 c -0.738,0.586 -1.518,1.047 -2.346,1.381 -0.827,0.334 -1.829,0.502 -3,0.502 -0.818,0 -1.568,-0.101 -2.244,-0.301 -0.68,-0.201 -1.256,-0.499 -1.731,-0.891 -0.477,-0.394 -0.85,-0.866 -1.117,-1.417 -0.269,-0.553 -0.403,-1.18 -0.403,-1.881 0,-0.638 0.088,-1.198 0.266,-1.683 0.173,-0.486 0.459,-0.923 0.853,-1.317 0.39,-0.392 0.91,-0.761 1.554,-1.104 0.643,-0.343 1.442,-0.683 2.396,-1.018 0.802,-0.283 1.473,-0.563 2.007,-0.84 0.535,-0.274 0.967,-0.555 1.293,-0.84 0.327,-0.284 0.556,-0.593 0.69,-0.929 0.134,-0.334 0.201,-0.701 0.201,-1.102 0,-0.938 -0.338,-1.674 -1.018,-2.21 -0.678,-0.535 -1.601,-0.801 -2.772,-0.801 -0.903,0 -1.738,0.19 -2.508,0.575 -0.77,0.384 -1.489,0.896 -2.158,1.532 l -1.305,-1.456 c 0.703,-0.703 1.56,-1.283 2.572,-1.743 1.012,-0.46 2.119,-0.69 3.323,-0.69 0.922,0 1.742,0.125 2.46,0.376 0.721,0.251 1.33,0.593 1.832,1.028 0.501,0.436 0.882,0.953 1.14,1.556 0.26,0.602 0.391,1.245 0.391,1.932 0,0.652 -0.084,1.229 -0.25,1.733 m -17.829,3.721 c -0.627,-0.54 -1.593,-0.813 -2.898,-0.813 h -4.666 v 6.525 h 4.917 c 1.171,0 2.062,-0.269 2.673,-0.811 0.61,-0.543 0.914,-1.356 0.914,-2.438 0,-1.101 -0.311,-1.921 -0.94,-2.463 m 2.471,4.733 c -0.284,0.618 -0.667,1.133 -1.153,1.543 -0.486,0.41 -1.065,0.715 -1.731,0.916 -0.671,0.201 -1.388,0.302 -2.158,0.302 h -6.952 V -6.247 h 1.959 v 7.478 h 4.163 l 3.765,-7.478 h 2.259 l -3.864,7.628 c 1.256,0.269 2.257,0.82 3.011,1.657 0.751,0.837 1.129,1.941 1.129,3.312 0,0.853 -0.143,1.589 -0.428,2.207 m -16.233,-14.804 v 1.783 h -9.032 v 6.698 h 5.016 v 1.783 h -5.016 v 5.519 h 8.656 v 1.782 h -10.615 V -6.247 Z m -15.129,17.565 h -2.01 l -3.939,-11.968 c -0.084,-0.252 -0.179,-0.548 -0.286,-0.893 -0.11,-0.342 -0.22,-0.68 -0.329,-1.016 -0.108,-0.334 -0.206,-0.647 -0.289,-0.94 -0.083,-0.294 -0.148,-0.514 -0.199,-0.666 -0.05,0.152 -0.115,0.368 -0.202,0.654 -0.083,0.285 -0.175,0.591 -0.275,0.916 -0.101,0.325 -0.206,0.656 -0.314,0.99 -0.109,0.335 -0.204,0.636 -0.287,0.904 l -3.915,12.019 h -2.058 l 5.973,-17.565 h 2.157 z m -18.368,0 h -1.957 V -6.247 h 1.957 z m -7.176,-17.565 v 17.565 h -1.906 v -13.25 -1.203 c -0.051,0.115 -0.13,0.267 -0.239,0.452 -0.108,0.184 -0.22,0.381 -0.339,0.589 -0.116,0.209 -0.234,0.419 -0.351,0.627 -0.117,0.209 -0.224,0.388 -0.327,0.54 l -7.603,12.245 h -1.906 V -6.247 h 1.881 V 6.775 7.98 c 0.051,-0.117 0.13,-0.267 0.239,-0.452 0.108,-0.182 0.222,-0.381 0.339,-0.591 0.116,-0.208 0.235,-0.417 0.351,-0.625 0.118,-0.209 0.226,-0.39 0.325,-0.54 l 7.679,-12.019 z m -17.664,7.176 v 10.389 h -1.959 V 0.88 c 0,-1.908 -0.325,-3.321 -0.976,-4.241 -0.654,-0.92 -1.742,-1.379 -3.263,-1.379 -2.993,0 -4.489,1.888 -4.489,5.669 v 10.389 h -1.959 V 0.88 c 0,-2.443 0.531,-4.288 1.594,-5.533 1.062,-1.247 2.647,-1.869 4.756,-1.869 2.122,0 3.705,0.631 4.74,1.894 1.039,1.263 1.556,3.116 1.556,5.557"
             style="fill:#214395;fill-opacity:1;fill-rule:nonzero;stroke:none"
             id="path212" />
        </g>
        <g
           id="g214"
           transform="translate(418.28709,258.6877)">
          <path
             d="m 0,0 h -6.047 l 1.93,5.723 c 0.102,0.302 0.21,0.624 0.326,0.965 0.119,0.343 0.227,0.674 0.329,0.992 0.097,0.316 0.188,0.609 0.264,0.877 0.075,0.269 0.137,0.495 0.187,0.677 C -2.96,9.052 -2.898,8.82 -2.826,8.544 -2.75,8.269 -2.66,7.977 -2.559,7.668 -2.461,7.357 -2.356,7.035 -2.248,6.701 -2.14,6.366 -2.031,6.057 -1.934,5.772 Z m 4.164,-6.247 -6.098,17.565 h -2.157 l -6.097,-17.565 h 2.005 L -6.65,-1.78 H 0.6 l 1.507,-4.467 z m -17.262,0 -6.122,10.965 5.143,6.6 H -16.21 L -21.302,4.744 C -21.49,4.509 -21.7,4.232 -21.945,3.916 c -0.242,-0.318 -0.488,-0.645 -0.738,-0.978 -0.249,-0.336 -0.48,-0.65 -0.69,-0.943 -0.209,-0.291 -0.372,-0.52 -0.488,-0.69 v 2.36 7.653 H -25.82 V -6.247 h 1.959 v 5.044 l 3.336,4.317 5.194,-9.361 z M -30.815,0.929 V 11.318 H -32.77 V 0.88 c 0,-1.908 -0.325,-3.321 -0.979,-4.241 -0.651,-0.92 -1.739,-1.379 -3.26,-1.379 -2.996,0 -4.493,1.888 -4.493,5.669 v 10.389 h -1.959 V 0.88 c 0,-2.443 0.532,-4.288 1.594,-5.533 1.063,-1.247 2.646,-1.869 4.757,-1.869 2.121,0 3.704,0.631 4.741,1.894 1.038,1.263 1.554,3.116 1.554,5.557 z M -50.31,-3.562 c -0.552,-0.603 -1.489,-0.902 -2.808,-0.902 h -4.467 V 2.31 h 4.366 c 1.153,0 2.067,-0.302 2.732,-0.902 0.673,-0.604 1.005,-1.457 1.005,-2.561 0,-1.005 -0.275,-1.807 -0.828,-2.409 z m -0.701,8.465 C -51.48,4.362 -52.257,4.089 -53.345,4.089 h -4.24 v 5.447 h 4.391 c 0.987,0 1.714,-0.246 2.183,-0.735 0.47,-0.494 0.701,-1.139 0.701,-1.938 0,-0.764 -0.231,-1.42 -0.701,-1.96 z m 3.188,-4.124 c -0.202,0.509 -0.463,0.938 -0.781,1.279 -0.318,0.345 -0.675,0.62 -1.077,0.83 -0.401,0.209 -0.806,0.365 -1.207,0.466 0.756,0.266 1.366,0.688 1.833,1.263 0.469,0.577 0.704,1.35 0.704,2.317 0,0.752 -0.119,1.404 -0.354,1.955 -0.235,0.549 -0.564,1.005 -0.99,1.363 -0.426,0.359 -0.925,0.628 -1.504,0.802 -0.578,0.175 -1.218,0.264 -1.919,0.264 h -6.426 V -6.247 h 6.3 c 1.858,0 3.274,0.432 4.254,1.294 0.975,0.862 1.467,2.165 1.467,3.909 0,0.702 -0.101,1.31 -0.3,1.823 z m -19.011,3.045 c -0.625,-0.54 -1.59,-0.813 -2.894,-0.813 h -4.67 v 6.525 h 4.919 c 1.171,0 2.064,-0.269 2.674,-0.811 0.611,-0.543 0.915,-1.356 0.915,-2.438 0,-1.101 -0.315,-1.921 -0.944,-2.463 z m 2.472,4.733 c -0.281,0.618 -0.668,1.133 -1.152,1.543 -0.485,0.41 -1.063,0.715 -1.732,0.916 -0.668,0.201 -1.388,0.302 -2.157,0.302 h -6.95 V -6.247 h 1.955 v 7.478 h 4.167 l 3.763,-7.478 h 2.258 l -3.863,7.628 c 1.254,0.269 2.259,0.82 3.01,1.657 0.752,0.837 1.132,1.941 1.132,3.312 0,0.853 -0.145,1.589 -0.431,2.207 z M -80.593,-6.247 v 1.783 h -9.032 v 6.698 h 5.017 v 1.783 h -5.017 v 5.519 h 8.656 v 1.782 H -91.583 V -6.247 Z M -95.624,9.536 v 1.782 H -107.92 V 9.536 h 5.169 V -6.247 h 1.959 V 9.536 Z m -23.059,-9.433 c -0.166,0.501 -0.448,0.96 -0.838,1.379 -0.394,0.417 -0.918,0.802 -1.569,1.155 -0.654,0.35 -1.463,0.703 -2.436,1.053 -0.885,0.316 -1.601,0.609 -2.143,0.878 -0.546,0.268 -0.965,0.541 -1.269,0.815 -0.3,0.277 -0.502,0.562 -0.603,0.853 -0.098,0.293 -0.148,0.622 -0.148,0.991 0,0.352 0.061,0.683 0.188,0.992 0.126,0.309 0.325,0.582 0.6,0.817 0.278,0.233 0.632,0.421 1.069,0.563 0.434,0.143 0.951,0.213 1.554,0.213 0.886,0 1.652,-0.139 2.296,-0.415 0.643,-0.275 1.286,-0.681 1.919,-1.215 l 1.254,1.529 c -0.734,0.586 -1.514,1.047 -2.346,1.381 -0.827,0.334 -1.825,0.502 -2.996,0.502 -0.82,0 -1.569,-0.101 -2.248,-0.301 -0.676,-0.201 -1.254,-0.499 -1.731,-0.891 -0.477,-0.394 -0.85,-0.866 -1.117,-1.417 -0.267,-0.553 -0.401,-1.18 -0.401,-1.881 0,-0.638 0.09,-1.198 0.264,-1.683 0.177,-0.486 0.459,-0.923 0.853,-1.317 0.394,-0.392 0.91,-0.761 1.557,-1.104 0.644,-0.343 1.442,-0.683 2.393,-1.018 0.806,-0.283 1.474,-0.563 2.009,-0.84 0.535,-0.274 0.965,-0.555 1.294,-0.84 0.326,-0.284 0.553,-0.593 0.687,-0.929 0.137,-0.334 0.202,-0.701 0.202,-1.102 0,-0.938 -0.339,-1.674 -1.015,-2.21 -0.676,-0.535 -1.601,-0.801 -2.772,-0.801 -0.904,0 -1.742,0.19 -2.512,0.575 -0.766,0.384 -1.485,0.896 -2.158,1.532 l -1.305,-1.456 c 0.705,-0.703 1.562,-1.283 2.574,-1.743 1.012,-0.46 2.121,-0.69 3.325,-0.69 0.922,0 1.738,0.125 2.457,0.376 0.72,0.251 1.331,0.593 1.833,1.028 0.502,0.436 0.882,0.953 1.142,1.556 0.257,0.602 0.39,1.245 0.39,1.932 0,0.652 -0.086,1.229 -0.253,1.733 z M -137.274,0 h -6.048 l 1.932,5.723 c 0.1,0.302 0.21,0.624 0.327,0.965 0.116,0.343 0.224,0.674 0.326,0.992 0.099,0.316 0.188,0.609 0.263,0.877 0.075,0.269 0.138,0.495 0.188,0.677 0.049,-0.182 0.112,-0.414 0.188,-0.69 0.076,-0.275 0.163,-0.567 0.262,-0.876 0.103,-0.311 0.206,-0.633 0.317,-0.967 0.105,-0.335 0.211,-0.644 0.31,-0.929 z m 4.163,-6.247 -6.098,17.565 h -2.157 l -6.098,-17.565 h 2.01 l 1.529,4.467 h 7.251 l 1.507,-4.467 z m -15.505,15.783 v 1.782 h -12.296 V 9.536 h 5.168 V -6.247 h 1.959 V 9.536 Z m -16.461,1.782 h -1.957 V -6.247 h 1.957 z m -6.898,-11.215 c -0.17,0.501 -0.448,0.96 -0.842,1.379 -0.394,0.417 -0.914,0.802 -1.568,1.155 -0.655,0.35 -1.464,0.703 -2.433,1.053 -0.889,0.316 -1.603,0.609 -2.147,0.878 -0.545,0.268 -0.966,0.541 -1.265,0.815 -0.303,0.277 -0.504,0.562 -0.603,0.853 -0.101,0.293 -0.152,0.622 -0.152,0.991 0,0.352 0.065,0.683 0.19,0.992 0.124,0.309 0.325,0.582 0.601,0.817 0.275,0.233 0.631,0.421 1.067,0.563 0.433,0.143 0.952,0.213 1.556,0.213 0.887,0 1.649,-0.139 2.297,-0.415 0.641,-0.275 1.281,-0.681 1.919,-1.215 l 1.254,1.529 c -0.738,0.586 -1.518,1.047 -2.346,1.381 -0.827,0.334 -1.829,0.502 -3,0.502 -0.818,0 -1.568,-0.101 -2.244,-0.301 -0.68,-0.201 -1.256,-0.499 -1.731,-0.891 -0.477,-0.394 -0.85,-0.866 -1.117,-1.417 -0.269,-0.553 -0.403,-1.18 -0.403,-1.881 0,-0.638 0.088,-1.198 0.266,-1.683 0.173,-0.486 0.459,-0.923 0.853,-1.317 0.39,-0.392 0.91,-0.761 1.554,-1.104 0.643,-0.343 1.442,-0.683 2.396,-1.018 0.802,-0.283 1.473,-0.563 2.007,-0.84 0.535,-0.274 0.967,-0.555 1.293,-0.84 0.327,-0.284 0.556,-0.593 0.69,-0.929 0.134,-0.334 0.201,-0.701 0.201,-1.102 0,-0.938 -0.338,-1.674 -1.018,-2.21 -0.678,-0.535 -1.601,-0.801 -2.772,-0.801 -0.903,0 -1.738,0.19 -2.508,0.575 -0.77,0.384 -1.489,0.896 -2.158,1.532 l -1.305,-1.456 c 0.703,-0.703 1.56,-1.283 2.572,-1.743 1.012,-0.46 2.119,-0.69 3.323,-0.69 0.922,0 1.742,0.125 2.46,0.376 0.721,0.251 1.33,0.593 1.832,1.028 0.501,0.436 0.882,0.953 1.14,1.556 0.26,0.602 0.391,1.245 0.391,1.932 0,0.652 -0.084,1.229 -0.25,1.733 z m -17.829,3.721 c -0.627,-0.54 -1.593,-0.813 -2.898,-0.813 h -4.666 v 6.525 h 4.917 c 1.171,0 2.062,-0.269 2.673,-0.811 0.61,-0.543 0.914,-1.356 0.914,-2.438 0,-1.101 -0.311,-1.921 -0.94,-2.463 z m 2.471,4.733 c -0.284,0.618 -0.667,1.133 -1.153,1.543 -0.486,0.41 -1.065,0.715 -1.731,0.916 -0.671,0.201 -1.388,0.302 -2.158,0.302 h -6.952 V -6.247 h 1.959 v 7.478 h 4.163 l 3.765,-7.478 h 2.259 l -3.864,7.628 c 1.256,0.269 2.257,0.82 3.011,1.657 0.751,0.837 1.129,1.941 1.129,3.312 0,0.853 -0.143,1.589 -0.428,2.207 z m -16.233,-14.804 v 1.783 h -9.032 v 6.698 h 5.016 v 1.783 h -5.016 v 5.519 h 8.656 v 1.782 h -10.615 V -6.247 Z m -15.129,17.565 h -2.01 l -3.939,-11.968 c -0.084,-0.252 -0.179,-0.548 -0.286,-0.893 -0.11,-0.342 -0.22,-0.68 -0.329,-1.016 -0.108,-0.334 -0.206,-0.647 -0.289,-0.94 -0.083,-0.294 -0.148,-0.514 -0.199,-0.666 -0.05,0.152 -0.115,0.368 -0.202,0.654 -0.083,0.285 -0.175,0.591 -0.275,0.916 -0.101,0.325 -0.206,0.656 -0.314,0.99 -0.109,0.335 -0.204,0.636 -0.287,0.904 l -3.915,12.019 h -2.058 l 5.973,-17.565 h 2.157 z m -18.368,0 h -1.957 V -6.247 h 1.957 z m -7.176,-17.565 v 17.565 h -1.906 v -13.25 -1.203 c -0.051,0.115 -0.13,0.267 -0.239,0.452 -0.108,0.184 -0.22,0.381 -0.339,0.589 -0.116,0.209 -0.234,0.419 -0.351,0.627 -0.117,0.209 -0.224,0.388 -0.327,0.54 l -7.603,12.245 h -1.906 V -6.247 h 1.881 V 6.775 7.98 c 0.051,-0.117 0.13,-0.267 0.239,-0.452 0.108,-0.182 0.222,-0.381 0.339,-0.591 0.116,-0.208 0.235,-0.417 0.351,-0.625 0.118,-0.209 0.226,-0.39 0.325,-0.54 l 7.679,-12.019 z m -17.664,7.176 v 10.389 h -1.959 V 0.88 c 0,-1.908 -0.325,-3.321 -0.976,-4.241 -0.654,-0.92 -1.742,-1.379 -3.263,-1.379 -2.993,0 -4.489,1.888 -4.489,5.669 v 10.389 h -1.959 V 0.88 c 0,-2.443 0.531,-4.288 1.594,-5.533 1.062,-1.247 2.647,-1.869 4.756,-1.869 2.122,0 3.705,0.631 4.74,1.894 1.039,1.263 1.556,3.116 1.556,5.557 z"
             style="fill:none;stroke:#214395;stroke-width:1.177;stroke-linecap:butt;stroke-linejoin:miter;stroke-miterlimit:4;stroke-dasharray:none;stroke-opacity:1"
             id="path216" />
        </g>
      </g>
    </g>
  </g>
</svg>
